<?xml version="1.0" encoding="UTF-8" standalone="no"?>
<!-- Created with Inkscape (http://www.inkscape.org/) -->

<svg
   version="1.1"
   id="svg424"
   width="498.77582"
   height="577.26953"
   viewBox="0 0 498.77582 577.26953"
   sodipodi:docname="tooth_generated.jpg"
   xmlns:inkscape="http://www.inkscape.org/namespaces/inkscape"
   xmlns:sodipodi="http://sodipodi.sourceforge.net/DTD/sodipodi-0.dtd"
   xmlns="http://www.w3.org/2000/svg"
   xmlns:svg="http://www.w3.org/2000/svg">
  <defs
     id="defs428" />
  <sodipodi:namedview
     id="namedview426"
     pagecolor="#ffffff"
     bordercolor="#000000"
     borderopacity="0.25"
     inkscape:showpageshadow="2"
     inkscape:pageopacity="0.0"
     inkscape:pagecheckerboard="0"
     inkscape:deskcolor="#d1d1d1"
     showgrid="false" />
  <g
     inkscape:groupmode="layer"
     inkscape:label="Image"
     id="g430"
     transform="translate(-752.44049,-448.23987)">
    <path
       style="fill:#f8f7f2;fill-opacity:1;stroke:#004441;stroke-width:13.3493;stroke-dasharray:none;stroke-opacity:1"
       d="m 931.71717,1000.4868 c 0,0 -12.20106,-242.91201 67.66041,-237.36607 79.86152,5.54594 70.98802,242.91197 70.98802,242.91197 26.1958,16.5215 47.695,5.546 66.5512,-29.94804 18.8562,-35.494 35.494,-80.97066 35.494,-80.97066 l 13.3102,-133.10246 c 0,0 34.3848,-109.80952 53.241,-147.52188 18.8562,-37.71236 -15.5286,-115.35546 -42.1491,-133.10246 -26.6205,-17.74699 -80.9707,-29.94805 -106.482,-25.5113 -25.5113,4.43675 -87.0712,20.51997 -87.0712,20.51997 0,0 -80.41603,-22.73834 -110.36408,-19.41078 -29.94805,3.32756 -99.82684,-3.32756 -127.55652,100.93603 -27.72968,104.26358 43.2583,109.80952 53.24098,197.4353 9.98269,87.62578 1.10919,140.86676 29.94805,190.78018 20.00151,30.00385 56.41188,107.9537 83.18904,54.3502 z"
       id="path490"
       sodipodi:nodetypes="cscsccssscssscc"
       inkscape:export-filename="path490.svg"
       inkscape:export-xdpi="2.0899999"
       inkscape:export-ydpi="2.0899999" />
  </g>
</svg>
